<svg xmlns="http://www.w3.org/2000/svg" width="16.263" height="18" viewBox="0 0 16.263 18">
  <path id="bell" d="M16.062,9.323C13.744,4.334,12.538,2.439,8.75,2.518c-1.349.027-1.026-.978-2.055-.6s-.146.939-1.2,1.8c-2.951,2.423-2.679,4.664-1.31,10,.576,2.25-1.39,2.36-.612,4.54.568,1.59,4.757,2.256,9.176.617s7.205-4.894,6.636-6.485c-.778-2.181-2.35-.977-3.327-3.078Zm-3.789,8.219c-3.947,1.464-7.19.6-7.328.221C4.71,17.1,6.22,14.9,10.732,13.225s7.031-1.054,7.294-.316c.156.436-1.8,3.168-5.753,4.633ZM11,13.99a14.839,14.839,0,0,0-4.426,2.429,3.122,3.122,0,0,0,3.1.286c1.552-.574,2.508-1.9,2.13-2.952-.005-.013-.011-.024-.017-.037-.255.083-.517.174-.785.275Z" transform="translate(-3.199 -1.835)" fill="#fff"/>
</svg>
