<svg xmlns="http://www.w3.org/2000/svg" viewBox="0 0 21.62 14.53"><defs><style>.cls-1{fill:#03a63c;}.cls-2{fill:#fff;}</style></defs><g id="Layer_2" data-name="Layer 2"><g id="Layer_1-2" data-name="Layer 1"><path class="cls-1" d="M13.7,14.06a10.78,10.78,0,0,1-3.82.45A11.11,11.11,0,0,1,0,6.55,10.78,10.78,0,0,1,3.83,6.1,11.11,11.11,0,0,1,13.7,14.06Z"/><path class="cls-1" d="M13.67,14.07a10.9,10.9,0,0,1-3.8.44A11.07,11.07,0,0,1,0,6.63a10.7,10.7,0,0,1,3.81-.44A11,11,0,0,1,13.67,14.07Z"/><path class="cls-1" d="M21.62,2.51A12.28,12.28,0,0,1,20,8.61l0,0c-.12.22-.25.43-.39.64,0,0,0,0,0,0l0,0v0a12.68,12.68,0,0,1-5.42,4.53A7.75,7.75,0,0,1,20.49,2.5,7.11,7.11,0,0,1,21.62,2.51Z"/><path class="cls-1" d="M12.17,9.39A6.78,6.78,0,0,1,9.58,6.75a6.61,6.61,0,0,1-.86-3.9A7.2,7.2,0,0,1,9.49,0a6.58,6.58,0,0,1,2,1.63,7.52,7.52,0,0,1,1.38,5A8,8,0,0,1,12.17,9.39Z"/><path class="cls-2" d="M4.46,8.65A7.19,7.19,0,0,1,6,9a8.49,8.49,0,0,1,1.41.64,7.55,7.55,0,0,1,2.32,2,11,11,0,0,0-1.18-1,9.9,9.9,0,0,0-1.27-.83A13.08,13.08,0,0,0,4.46,8.65Z"/><path class="cls-2" d="M15.32,10.51a7.52,7.52,0,0,1,1.07-3,7.92,7.92,0,0,1,1-1.28,7.05,7.05,0,0,1,1.19-1.06A12.43,12.43,0,0,0,16.6,7.65,12.13,12.13,0,0,0,15.87,9,12.47,12.47,0,0,0,15.32,10.51Z"/><path class="cls-2" d="M10.33,3.05a16.92,16.92,0,0,1,.72,2,18.28,18.28,0,0,1,.48,2.1,16.92,16.92,0,0,1-.72-2A16.4,16.4,0,0,1,10.33,3.05Z"/></g></g></svg>