<svg xmlns="http://www.w3.org/2000/svg" viewBox="0 0 66.3 66.3"><defs><style>.cls-1,.cls-2{fill:#03a63c;}.cls-2{font-size:39.66px;font-family:Palatino-Bold, Palatino;font-weight:700;}</style></defs><g id="Layer_2" data-name="Layer 2"><g id="Layer_1-2" data-name="Layer 1"><path class="cls-1" d="M33.15,66.3A33.15,33.15,0,1,1,66.3,33.15,33.19,33.19,0,0,1,33.15,66.3Zm0-64.48A31.33,31.33,0,1,0,64.48,33.15,31.36,31.36,0,0,0,33.15,1.82Z"/><path class="cls-1" d="M33.15,61.27A28.13,28.13,0,1,1,61.27,33.15,28.15,28.15,0,0,1,33.15,61.27Zm0-54.43a26.31,26.31,0,1,0,26.3,26.31A26.34,26.34,0,0,0,33.15,6.84Z"/><text class="cls-2" transform="translate(16.37 47.44)">G</text><rect class="cls-1" x="32.18" y="16.7" width="1.82" height="3.31"/><rect class="cls-1" x="32.25" y="47.95" width="1.82" height="3.31"/><rect class="cls-1" x="29.31" y="16.7" width="1.82" height="3.79"/><rect class="cls-1" x="35.33" y="16.7" width="1.82" height="3.31"/><rect class="cls-1" x="29.31" y="47.21" width="1.82" height="4.05"/><rect class="cls-1" x="35.26" y="47.94" width="1.82" height="3.31"/></g></g></svg>