<svg xmlns="http://www.w3.org/2000/svg" width="21.354" height="20" viewBox="0 0 21.354 20">
  <path id="trophy" d="M16.266.625a.315.315,0,0,0,.318-.312A.315.315,0,0,0,16.266,0H5.468a.315.315,0,0,0-.318.312.315.315,0,0,0,.318.312Zm0,.625H4.2c-2.085,0-3.057.729-3.505,1.34A3.023,3.023,0,0,0,.4,5.411,11.925,11.925,0,0,0,4,9.934a.322.322,0,0,0,.447-.056.31.31,0,0,0-.057-.439A11.4,11.4,0,0,1,1.006,5.213a2.423,2.423,0,0,1,.2-2.257A3.561,3.561,0,0,1,4.2,1.875h.953V7.812c0,4.2,4.238,6.626,5.1,7.076a.311.311,0,0,0-.023.111v1.562a.318.318,0,0,0,.635,0V15a.307.307,0,0,0-.021-.1c.962-.445,5.737-2.866,5.737-7.085V1.875h.953a3.561,3.561,0,0,1,2.99,1.081,2.424,2.424,0,0,1,.2,2.258,13.557,13.557,0,0,1-3.387,4.227.31.31,0,0,0-.057.439.32.32,0,0,0,.252.121.325.325,0,0,0,.195-.065,13.881,13.881,0,0,0,3.6-4.523,3.023,3.023,0,0,0-.29-2.821c-.448-.612-1.42-1.341-3.505-1.341h-1.27Zm-.318,6.562c0,3.808-4.543,6.127-5.39,6.527-.78-.416-4.773-2.729-4.773-6.527V1.875H15.949V7.812ZM7.056,17.5a1.232,1.232,0,0,0-1.27,1.25v.937A.315.315,0,0,0,6.1,20H15a.315.315,0,0,0,.318-.312V18.8a1.271,1.271,0,0,0-1.27-1.3Zm7.622,1.3v.578H6.421V18.75a.6.6,0,0,1,.635-.625h6.987A.64.64,0,0,1,14.678,18.8Z" transform="translate(-0.19)"/>
</svg>
