<svg xmlns="http://www.w3.org/2000/svg" width="21.783" height="19.5" viewBox="0 0 21.783 19.5">
  <path id="profile-male" d="M.355,19.493a.306.306,0,0,0,.373-.216c.628-2.342,3.179-2.949,4.7-3.312a6.139,6.139,0,0,0,.88-.247,3.865,3.865,0,0,0,2.473-2.852.3.3,0,0,0-.1-.288,7.9,7.9,0,0,1-2.149-3.3.3.3,0,0,0-.063-.1,3.27,3.27,0,0,1-1-2.008.785.785,0,0,1,.418-.742.3.3,0,0,0,.148-.249C6.17,3.07,8.382.626,11.094.611l.065,0c2.725.038,4.923,2.534,5,5.683a.3.3,0,0,0,.108.225.784.784,0,0,1,.28.644,2.946,2.946,0,0,1-.732,1.689.318.318,0,0,0-.051.1,7.933,7.933,0,0,1-2.4,3.745.306.306,0,0,0-.108.294,3.868,3.868,0,0,0,2.473,2.852,5.722,5.722,0,0,0,.928.246c1.51.327,4.036.875,4.656,3.189a.3.3,0,0,0,.294.225.325.325,0,0,0,.079-.01.305.305,0,0,0,.216-.374c-.716-2.674-3.578-3.293-5.115-3.626a5.663,5.663,0,0,1-.814-.21,3.315,3.315,0,0,1-2.079-2.234A8.65,8.65,0,0,0,16.33,9.187a3.493,3.493,0,0,0,.828-2.022,1.391,1.391,0,0,0-.392-1.014C16.621,2.737,14.184.047,11.159,0h-.091C8.1.019,5.651,2.638,5.437,5.994a1.378,1.378,0,0,0-.575,1.173A3.812,3.812,0,0,0,5.983,9.541,8.594,8.594,0,0,0,8.15,12.919a3.312,3.312,0,0,1-2.081,2.24,6,6,0,0,1-.778.215C3.742,15.742.861,16.428.139,19.12a.3.3,0,0,0,.216.373Z" transform="translate(-0.129 -0.003)"/>
</svg>
