<svg xmlns="http://www.w3.org/2000/svg" width="19.578" height="20" viewBox="0 0 19.578 20">
  <path id="magnifying-glass" d="M6.424,0A6.5,6.5,0,0,0,0,6.562a6.5,6.5,0,0,0,6.424,6.562A6.318,6.318,0,0,0,10.75,11.4a.309.309,0,0,0,.046.071l1.316,1.344a1.258,1.258,0,0,0,.186,1.516l5.191,5.3a1.2,1.2,0,0,0,1.73,0,1.268,1.268,0,0,0,0-1.767l-5.191-5.3a1.234,1.234,0,0,0-1.481-.187l-1.318-1.347a.289.289,0,0,0-.07-.047,6.608,6.608,0,0,0,1.689-4.419A6.5,6.5,0,0,0,6.424,0ZM13.6,13l5.191,5.3a.634.634,0,0,1,0,.884.618.618,0,0,1-.865,0l-5.191-5.3a.634.634,0,0,1,0-.884.6.6,0,0,1,.865,0Zm-7.172-.5A5.883,5.883,0,0,1,.612,6.562,5.883,5.883,0,0,1,6.424.625a5.883,5.883,0,0,1,5.812,5.937A5.883,5.883,0,0,1,6.424,12.5Zm0-10.625A4.644,4.644,0,0,0,1.835,6.562,4.644,4.644,0,0,0,6.424,11.25a4.644,4.644,0,0,0,4.589-4.687A4.644,4.644,0,0,0,6.424,1.875Zm0,8.75A4.025,4.025,0,0,1,2.447,6.562,4.025,4.025,0,0,1,6.424,2.5,4.025,4.025,0,0,1,10.4,6.562,4.025,4.025,0,0,1,6.424,10.625Z"/>
</svg>
