<svg xmlns="http://www.w3.org/2000/svg" width="15.086" height="15.086" viewBox="0 0 15.086 15.086">
  <path id="Icon_metro-shop" data-name="Icon metro-shop" d="M8.407,9.577l.663-4.95H5.622L4.181,8.87a1.658,1.658,0,0,0-.068.471,2.034,2.034,0,0,0,2.155,1.886,2.08,2.08,0,0,0,2.139-1.65Zm3.249,1.65a2.034,2.034,0,0,0,2.155-1.886c0-.039,0-.077,0-.114l-.427-4.6H9.932L9.5,9.224c0,.039,0,.077,0,.118a2.034,2.034,0,0,0,2.155,1.886Zm4.191.986v3.728H7.466V12.219a3.178,3.178,0,0,1-1.2.234,3.082,3.082,0,0,1-.479-.046v5.986a1.256,1.256,0,0,0,1.172,1.32H16.35a1.258,1.258,0,0,0,1.173-1.32V12.408a3.211,3.211,0,0,1-.479.046A3.14,3.14,0,0,1,15.847,12.214ZM19.132,8.87,17.69,4.627H14.243L14.9,9.57a2.076,2.076,0,0,0,2.14,1.658A2.034,2.034,0,0,0,19.2,9.342,1.688,1.688,0,0,0,19.132,8.87Z" transform="translate(-4.113 -4.627)" fill="#cdcfd9"/>
</svg>
