<svg xmlns="http://www.w3.org/2000/svg" width="21.616" height="21.616" viewBox="0 0 21.616 21.616">
  <path id="shopping-cart" d="M15.612,20.814a2.4,2.4,0,1,0,2.4-2.4A2.4,2.4,0,0,0,15.612,20.814Zm-12.009,0a2.4,2.4,0,1,0,2.4-2.4A2.4,2.4,0,0,0,3.6,20.814Zm4.259-5.8,13.291-3.8a.676.676,0,0,0,.462-.612V4H4.8V2.08a.482.482,0,0,0-.479-.48H.48A.481.481,0,0,0,0,2.08V4H2.4L4.7,14.758,4.8,15.89v1.98a.483.483,0,0,0,.48.48H21.136a.483.483,0,0,0,.48-.48v-1.86H8.109c-1.381,0-1.41-.662-.246-.994Z" transform="translate(-0.001 -1.6)" fill="#fff"/>
</svg>
